<?xml version="1.0" encoding="iso-8859-1"?>
<!-- Generator: Adobe Illustrator 19.0.0, SVG Export Plug-In . SVG Version: 6.00 Build 0)  -->
<svg version="1.1" id="Capa_1" xmlns="http://www.w3.org/2000/svg" xmlns:xlink="http://www.w3.org/1999/xlink" x="0px" y="0px"
	 viewBox="0 0 512 512" style="enable-background:new 0 0 512 512;" xml:space="preserve">
<polygon style="fill:#00D4BE;" points="410.9,295.384 443.921,256 179.631,235.703 152.23,256 68.503,339.726 "/>
<polygon style="fill:#00B3A0;" points="410.9,275.087 410.9,295.384 512,256 443.921,245.851 443.921,256 "/>
<polygon style="fill:#008F80;" points="410.9,216.616 68.503,172.274 152.23,256 443.921,256 "/>
<polygon style="fill:#00786B;" points="443.921,256 512,256 410.9,216.616 410.9,236.913 "/>
<polygon style="fill:#00D4BE;" points="7.611,508.194 512,256 410.9,275.087 339.859,295.384 "/>
<polygon style="fill:#06F5DD;" points="68.503,339.726 7.611,508.194 410.9,275.087 "/>
<polygon style="fill:#00D4BE;" points="512,256 7.611,3.806 329.711,216.616 410.9,236.913 "/>
<polygon style="fill:#06F5DD;" points="7.611,3.806 68.503,172.274 410.9,236.913 "/>
<g>
	<circle style="fill:#8CFFF3;" cx="68.503" cy="256" r="7.611"/>
	<circle style="fill:#8CFFF3;" cx="38.057" cy="256" r="7.611"/>
	<circle style="fill:#8CFFF3;" cx="7.611" cy="256" r="7.611"/>
</g>
<g>
</g>
<g>
</g>
<g>
</g>
<g>
</g>
<g>
</g>
<g>
</g>
<g>
</g>
<g>
</g>
<g>
</g>
<g>
</g>
<g>
</g>
<g>
</g>
<g>
</g>
<g>
</g>
<g>
</g>
</svg>
